<svg width="699" height="586" xmlns="http://www.w3.org/2000/svg" xmlns:xlink="http://www.w3.org/1999/xlink" overflow="hidden"><defs><clipPath id="clip0"><rect x="199" y="51" width="699" height="586"/></clipPath><clipPath id="clip1"><rect x="199" y="56" width="699" height="524"/></clipPath><clipPath id="clip2"><rect x="199" y="56" width="699" height="525"/></clipPath><clipPath id="clip3"><rect x="199" y="56" width="699" height="525"/></clipPath><clipPath id="clip4"><rect x="199" y="56" width="699" height="525"/></clipPath><clipPath id="clip5"><rect x="850" y="95" width="38" height="38"/></clipPath><clipPath id="clip6"><rect x="850" y="94" width="38" height="39"/></clipPath><clipPath id="clip7"><rect x="695" y="-29" width="703" height="528"/></clipPath><clipPath id="clip8"><rect x="695" y="-29" width="703" height="528"/></clipPath><clipPath id="clip9"><rect x="850" y="147" width="38" height="38"/></clipPath><clipPath id="clip10"><rect x="850" y="147" width="38" height="38"/></clipPath><clipPath id="clip11"><rect x="719" y="-55" width="543" height="408"/></clipPath><clipPath id="clip12"><rect x="719" y="-55" width="543" height="408"/></clipPath><clipPath id="clip13"><rect x="850" y="200" width="38" height="37"/></clipPath><clipPath id="clip14"><rect x="850" y="200" width="38" height="37"/></clipPath><clipPath id="clip15"><rect x="423" y="-159" width="779" height="569"/></clipPath><clipPath id="clip16"><rect x="423" y="-159" width="779" height="569"/></clipPath></defs><g clip-path="url(#clip0)" transform="translate(-199 -51)"><g clip-path="url(#clip1)"><g clip-path="url(#clip2)"><g clip-path="url(#clip3)"><g clip-path="url(#clip4)"><path d="M0 0 698.667 0 698.667 524 0 524Z" fill="#FFFFFF" transform="matrix(1.00048 0 0 1 199 56)"/></g><path d="M0 0 698.667 0 698.667 524 0 524Z" fill="#FFFFFF" transform="matrix(1.00048 0 0 1 199 56)"/><path d="M148.155 466.61 575.464 466.61 575.464 39.3 148.155 39.3Z" fill="#FFFFFF" transform="matrix(1.00048 0 0 1 199 56)"/><path d="M148.155 466.61 148.155 39.3" stroke="#262626" stroke-width="0.831725" stroke-linejoin="round" stroke-miterlimit="10" stroke-opacity="0.149" fill="none" transform="matrix(1.00048 0 0 1 199 56)"/><path d="M219.373 466.61 219.373 39.3" stroke="#262626" stroke-width="0.831725" stroke-linejoin="round" stroke-miterlimit="10" stroke-opacity="0.149" fill="none" transform="matrix(1.00048 0 0 1 199 56)"/><path d="M290.591 466.61 290.591 39.3" stroke="#262626" stroke-width="0.831725" stroke-linejoin="round" stroke-miterlimit="10" stroke-opacity="0.149" fill="none" transform="matrix(1.00048 0 0 1 199 56)"/><path d="M361.81 466.61 361.81 39.3" stroke="#262626" stroke-width="0.831725" stroke-linejoin="round" stroke-miterlimit="10" stroke-opacity="0.149" fill="none" transform="matrix(1.00048 0 0 1 199 56)"/><path d="M433.028 466.61 433.028 39.3" stroke="#262626" stroke-width="0.831725" stroke-linejoin="round" stroke-miterlimit="10" stroke-opacity="0.149" fill="none" transform="matrix(1.00048 0 0 1 199 56)"/><path d="M504.246 466.61 504.246 39.3" stroke="#262626" stroke-width="0.831725" stroke-linejoin="round" stroke-miterlimit="10" stroke-opacity="0.149" fill="none" transform="matrix(1.00048 0 0 1 199 56)"/><path d="M575.464 466.61 575.464 39.3" stroke="#262626" stroke-width="0.831725" stroke-linejoin="round" stroke-miterlimit="10" stroke-opacity="0.149" fill="none" transform="matrix(1.00048 0 0 1 199 56)"/><path d="M575.464 466.61 148.155 466.61" stroke="#262626" stroke-width="0.831725" stroke-linejoin="round" stroke-miterlimit="10" stroke-opacity="0.149" fill="none" transform="matrix(1.00048 0 0 1 199 56)"/><path d="M575.464 395.391 148.155 395.391" stroke="#262626" stroke-width="0.831725" stroke-linejoin="round" stroke-miterlimit="10" stroke-opacity="0.149" fill="none" transform="matrix(1.00048 0 0 1 199 56)"/><path d="M575.464 324.173 148.155 324.173" stroke="#262626" stroke-width="0.831725" stroke-linejoin="round" stroke-miterlimit="10" stroke-opacity="0.149" fill="none" transform="matrix(1.00048 0 0 1 199 56)"/><path d="M575.464 252.955 148.155 252.955" stroke="#262626" stroke-width="0.831725" stroke-linejoin="round" stroke-miterlimit="10" stroke-opacity="0.149" fill="none" transform="matrix(1.00048 0 0 1 199 56)"/><path d="M575.464 181.736 148.155 181.736" stroke="#262626" stroke-width="0.831725" stroke-linejoin="round" stroke-miterlimit="10" stroke-opacity="0.149" fill="none" transform="matrix(1.00048 0 0 1 199 56)"/><path d="M575.464 110.518 148.155 110.518" stroke="#262626" stroke-width="0.831725" stroke-linejoin="round" stroke-miterlimit="10" stroke-opacity="0.149" fill="none" transform="matrix(1.00048 0 0 1 199 56)"/><path d="M575.464 39.3 148.155 39.3" stroke="#262626" stroke-width="0.831725" stroke-linejoin="round" stroke-miterlimit="10" stroke-opacity="0.149" fill="none" transform="matrix(1.00048 0 0 1 199 56)"/><path d="M148.155 466.61 575.464 466.61" stroke="#262626" stroke-width="0.831725" stroke-linecap="square" stroke-linejoin="round" stroke-miterlimit="10" fill="none" transform="matrix(1.00048 0 0 1 199 56)"/><path d="M148.155 466.61 148.155 462.336" stroke="#262626" stroke-width="0.831725" stroke-linecap="square" stroke-linejoin="round" stroke-miterlimit="10" fill="none" transform="matrix(1.00048 0 0 1 199 56)"/><path d="M219.373 466.61 219.373 462.336" stroke="#262626" stroke-width="0.831725" stroke-linecap="square" stroke-linejoin="round" stroke-miterlimit="10" fill="none" transform="matrix(1.00048 0 0 1 199 56)"/><path d="M290.591 466.61 290.591 462.336" stroke="#262626" stroke-width="0.831725" stroke-linecap="square" stroke-linejoin="round" stroke-miterlimit="10" fill="none" transform="matrix(1.00048 0 0 1 199 56)"/><path d="M361.81 466.61 361.81 462.336" stroke="#262626" stroke-width="0.831725" stroke-linecap="square" stroke-linejoin="round" stroke-miterlimit="10" fill="none" transform="matrix(1.00048 0 0 1 199 56)"/><path d="M433.028 466.61 433.028 462.336" stroke="#262626" stroke-width="0.831725" stroke-linecap="square" stroke-linejoin="round" stroke-miterlimit="10" fill="none" transform="matrix(1.00048 0 0 1 199 56)"/><path d="M504.246 466.61 504.246 462.336" stroke="#262626" stroke-width="0.831725" stroke-linecap="square" stroke-linejoin="round" stroke-miterlimit="10" fill="none" transform="matrix(1.00048 0 0 1 199 56)"/><path d="M575.464 466.61 575.464 462.336" stroke="#262626" stroke-width="0.831725" stroke-linecap="square" stroke-linejoin="round" stroke-miterlimit="10" fill="none" transform="matrix(1.00048 0 0 1 199 56)"/><path d="M148.155 466.61 148.155 39.3" stroke="#262626" stroke-width="0.831725" stroke-linecap="square" stroke-linejoin="round" stroke-miterlimit="10" fill="none" transform="matrix(1.00048 0 0 1 199 56)"/><path d="M148.155 466.61 152.428 466.61" stroke="#262626" stroke-width="0.831725" stroke-linecap="square" stroke-linejoin="round" stroke-miterlimit="10" fill="none" transform="matrix(1.00048 0 0 1 199 56)"/><path d="M148.155 395.391 152.428 395.391" stroke="#262626" stroke-width="0.831725" stroke-linecap="square" stroke-linejoin="round" stroke-miterlimit="10" fill="none" transform="matrix(1.00048 0 0 1 199 56)"/><path d="M148.155 324.173 152.428 324.173" stroke="#262626" stroke-width="0.831725" stroke-linecap="square" stroke-linejoin="round" stroke-miterlimit="10" fill="none" transform="matrix(1.00048 0 0 1 199 56)"/><path d="M148.155 252.955 152.428 252.955" stroke="#262626" stroke-width="0.831725" stroke-linecap="square" stroke-linejoin="round" stroke-miterlimit="10" fill="none" transform="matrix(1.00048 0 0 1 199 56)"/><path d="M148.155 181.736 152.428 181.736" stroke="#262626" stroke-width="0.831725" stroke-linecap="square" stroke-linejoin="round" stroke-miterlimit="10" fill="none" transform="matrix(1.00048 0 0 1 199 56)"/><path d="M148.155 110.518 152.428 110.518" stroke="#262626" stroke-width="0.831725" stroke-linecap="square" stroke-linejoin="round" stroke-miterlimit="10" fill="none" transform="matrix(1.00048 0 0 1 199 56)"/><path d="M148.155 39.3 152.428 39.3" stroke="#262626" stroke-width="0.831725" stroke-linecap="square" stroke-linejoin="round" stroke-miterlimit="10" fill="none" transform="matrix(1.00048 0 0 1 199 56)"/><path d="M219.373 181.736 219.373 110.518 148.155 110.518 148.155 181.736 148.155 252.955 219.373 252.955 290.591 252.955 290.591 181.736ZM219.373 181.736 219.373 110.518 148.155 110.518 148.155 181.736 148.155 252.955 219.373 252.955 290.591 252.955 290.591 181.736Z" fill="#3B4CC1" fill-opacity="0.149" transform="matrix(1.00048 0 0 1 199 56)"/><path d="M219.373 324.173 219.373 252.955 148.155 252.955 148.155 324.173Z" fill="#B50426" fill-opacity="0.149" transform="matrix(1.00048 0 0 1 199 56)"/><path d="M219.373 324.173 219.373 252.955 148.155 252.955 148.155 324.173Z" fill="#3B4CC1" fill-opacity="0.149" transform="matrix(1.00048 0 0 1 199 56)"/><path d="M290.591 324.173 290.591 252.955 219.373 252.955 219.373 324.173Z" fill="#B50426" fill-opacity="0.149" transform="matrix(1.00048 0 0 1 199 56)"/><path d="M290.591 324.173 290.591 252.955 219.373 252.955 219.373 324.173Z" fill="#3B4CC1" fill-opacity="0.149" transform="matrix(1.00048 0 0 1 199 56)"/><path d="M361.81 324.173 361.81 252.955 290.591 252.955 290.591 324.173Z" fill="#B50426" fill-opacity="0.149" transform="matrix(1.00048 0 0 1 199 56)"/><path d="M361.81 324.173 361.81 252.955 290.591 252.955 290.591 324.173Z" fill="#3B4CC1" fill-opacity="0.149" transform="matrix(1.00048 0 0 1 199 56)"/><path d="M219.373 395.391 219.373 324.173 148.155 324.173 148.155 395.391Z" fill="#B50426" fill-opacity="0.149" transform="matrix(1.00048 0 0 1 199 56)"/><path d="M219.373 395.391 219.373 324.173 148.155 324.173 148.155 395.391Z" fill="#3B4CC1" fill-opacity="0.149" transform="matrix(1.00048 0 0 1 199 56)"/><path d="M290.591 395.391 290.591 324.173 219.373 324.173 219.373 395.391Z" fill="#B50426" fill-opacity="0.149" transform="matrix(1.00048 0 0 1 199 56)"/><path d="M290.591 395.391 290.591 324.173 219.373 324.173 219.373 395.391Z" fill="#3B4CC1" fill-opacity="0.149" transform="matrix(1.00048 0 0 1 199 56)"/><path d="M361.81 395.391 361.81 324.173 290.591 324.173 290.591 395.391Z" fill="#B50426" fill-opacity="0.149" transform="matrix(1.00048 0 0 1 199 56)"/><path d="M361.81 395.391 361.81 324.173 290.591 324.173 290.591 395.391Z" fill="#3B4CC1" fill-opacity="0.149" transform="matrix(1.00048 0 0 1 199 56)"/><path d="M433.028 395.391 433.028 324.173 361.81 324.173 361.81 395.391ZM433.028 395.391 433.028 324.173 361.81 324.173 361.81 395.391ZM219.373 466.61 219.373 395.391 148.155 395.391 148.155 466.61Z" fill="#B50426" fill-opacity="0.149" transform="matrix(1.00048 0 0 1 199 56)"/><path d="M219.373 466.61 219.373 395.391 148.155 395.391 148.155 466.61Z" fill="#3B4CC1" fill-opacity="0.149" transform="matrix(1.00048 0 0 1 199 56)"/><path d="M290.591 466.61 290.591 395.391 219.373 395.391 219.373 466.61Z" fill="#B50426" fill-opacity="0.149" transform="matrix(1.00048 0 0 1 199 56)"/><path d="M290.591 466.61 290.591 395.391 219.373 395.391 219.373 466.61Z" fill="#3B4CC1" fill-opacity="0.149" transform="matrix(1.00048 0 0 1 199 56)"/><path d="M361.81 466.61 361.81 395.391 290.591 395.391 290.591 466.61Z" fill="#B50426" fill-opacity="0.149" transform="matrix(1.00048 0 0 1 199 56)"/><path d="M361.81 466.61 361.81 395.391 290.591 395.391 290.591 466.61Z" fill="#3B4CC1" fill-opacity="0.149" transform="matrix(1.00048 0 0 1 199 56)"/><path d="M433.028 395.391 361.81 395.391 361.81 466.61 433.028 466.61 504.246 466.61 504.246 395.391ZM433.028 395.391 361.81 395.391 361.81 466.61 433.028 466.61 504.246 466.61 504.246 395.391Z" fill="#B50426" fill-opacity="0.149" transform="matrix(1.00048 0 0 1 199 56)"/><text font-family="Arial,Arial_MSFontService,Arial" font-weight="400" font-size="27" transform="matrix(0.624107 0 0 0.62381 378.171 558)">1</text><text font-family="Arial,Arial_MSFontService,Arial" font-weight="400" font-size="27" transform="matrix(0.624107 0 0 0.62381 449.423 558)">2</text><text font-family="Arial,Arial_MSFontService,Arial" font-weight="400" font-size="27" transform="matrix(0.624107 0 0 0.62381 520.675 558)">3</text><text font-family="Arial,Arial_MSFontService,Arial" font-weight="400" font-size="27" transform="matrix(0.624107 0 0 0.62381 591.927 558)">4</text><text font-family="Arial,Arial_MSFontService,Arial" font-weight="400" font-size="27" transform="matrix(0.624107 0 0 0.62381 663.18 558)">5</text><text font-family="Arial,Arial_MSFontService,Arial" font-weight="400" font-size="27" transform="matrix(0.624107 0 0 0.62381 734.432 558)">6</text><text font-family="Arial,Arial_MSFontService,Arial" font-weight="400" font-size="27" transform="matrix(0.624107 0 0 0.62381 314.044 494)">1</text><text font-family="Arial,Arial_MSFontService,Arial" font-weight="400" font-size="27" transform="matrix(0.624107 0 0 0.62381 314.044 422)">2</text><text font-family="Arial,Arial_MSFontService,Arial" font-weight="400" font-size="27" transform="matrix(0.624107 0 0 0.62381 314.044 351)">3</text><text font-family="Arial,Arial_MSFontService,Arial" font-weight="400" font-size="27" transform="matrix(0.624107 0 0 0.62381 314.044 280)">4</text><text font-family="Arial,Arial_MSFontService,Arial" font-weight="400" font-size="27" transform="matrix(0.624107 0 0 0.62381 314.044 209)">5</text><text font-family="Arial,Arial_MSFontService,Arial" font-weight="400" font-size="27" transform="matrix(0.624107 0 0 0.62381 314.044 137)">6</text><text font-family="Arial,Arial_MSFontService,Arial" font-weight="400" font-size="27" transform="matrix(0.624107 0 0 0.62381 282.526 73)">Region</text><text font-family="Arial,Arial_MSFontService,Arial" font-weight="400" font-size="27" transform="matrix(0.624107 0 0 0.62381 341.192 73)">(</text><text font-family="Arial,Arial_MSFontService,Arial" font-weight="400" font-size="27" transform="matrix(0.624107 0 0 0.62381 346.809 73)">j</text><text font-family="Arial,Arial_MSFontService,Arial" font-weight="400" font-size="27" transform="matrix(0.624107 0 0 0.62381 350.554 73)">)</text></g></g></g><path d="M234.5 95.5001 272.295 95.5002" stroke="#000000" stroke-width="1.33333" stroke-miterlimit="8" fill="none" fill-rule="evenodd"/><path d="M234.5 309.5 272.295 309.5" stroke="#000000" stroke-width="1.33333" stroke-miterlimit="8" fill="none" fill-rule="evenodd"/><path d="M234.5 522.5 272.295 522.5" stroke="#000000" stroke-width="1.33333" stroke-miterlimit="8" fill="none" fill-rule="evenodd"/><path d="M253.5 95.5001 253.5 171.091" stroke="#000000" stroke-width="1.33333" stroke-miterlimit="8" fill="none" fill-rule="evenodd"/><path d="M253.5 233.5 253.5 309.091" stroke="#000000" stroke-width="1.33333" stroke-miterlimit="8" fill="none" fill-rule="evenodd"/><text font-family="Arial,Arial_MSFontService,Arial" font-weight="400" font-size="14" transform="translate(218.831 199)">Functional</text><text font-family="Arial,Arial_MSFontService,Arial" font-weight="400" font-size="14" transform="translate(218.831 215)">Network 1</text><path d="M253.5 309.5 253.5 385.091" stroke="#000000" stroke-width="1.33333" stroke-miterlimit="8" fill="none" fill-rule="evenodd"/><path d="M254.5 447.5 254.5 523.091" stroke="#000000" stroke-width="1.33333" stroke-miterlimit="8" fill="none" fill-rule="evenodd"/><text font-family="Arial,Arial_MSFontService,Arial" font-weight="400" font-size="14" transform="translate(218.831 413)">Functional</text><text font-family="Arial,Arial_MSFontService,Arial" font-weight="400" font-size="14" transform="translate(218.831 429)">Network 2</text><path d="M347.5 636.295 347.5 598.5" stroke="#000000" stroke-width="1.33333" stroke-miterlimit="8" fill="none" fill-rule="evenodd"/><path d="M774.5 636.295 774.5 598.5" stroke="#000000" stroke-width="1.33333" stroke-miterlimit="8" fill="none" fill-rule="evenodd"/><path d="M347.5 617.5 498.681 617.5" stroke="#000000" stroke-width="1.33333" stroke-miterlimit="8" fill="none" fill-rule="evenodd"/><path d="M622.5 617.5 773.681 617.5" stroke="#000000" stroke-width="1.33333" stroke-miterlimit="8" fill="none" fill-rule="evenodd"/><text font-family="Arial,Arial_MSFontService,Arial" font-weight="400" font-size="16" transform="translate(525.779 623)">Region (k)</text><g clip-path="url(#clip5)"><g clip-path="url(#clip6)"><g clip-path="url(#clip7)"><g clip-path="url(#clip8)"><path d="M0 0 702.143 0 702.143 526.608 0 526.608Z" fill="#FFFFFF" transform="matrix(1.00018 0 0 1 695.268 -28.5527)"/></g><path d="M0 0 702.143 0 702.143 526.608 0 526.608Z" fill="#FFFFFF" transform="matrix(1.00018 0 0 1 695.268 -28.5527)"/><path d="M148.892 468.931 578.328 468.931 578.328 39.4956 148.892 39.4956Z" fill="#FFFFFF" transform="matrix(1.00018 0 0 1 695.268 -28.5527)"/><path d="M148.892 468.931 148.892 39.4956" stroke="#262626" stroke-width="0.835864" stroke-linejoin="round" stroke-miterlimit="10" stroke-opacity="0.149" fill="none" transform="matrix(1.00018 0 0 1 695.268 -28.5527)"/><path d="M220.465 468.931 220.465 39.4956" stroke="#262626" stroke-width="0.835864" stroke-linejoin="round" stroke-miterlimit="10" stroke-opacity="0.149" fill="none" transform="matrix(1.00018 0 0 1 695.268 -28.5527)"/><path d="M292.037 468.931 292.037 39.4956" stroke="#262626" stroke-width="0.835864" stroke-linejoin="round" stroke-miterlimit="10" stroke-opacity="0.149" fill="none" transform="matrix(1.00018 0 0 1 695.268 -28.5527)"/><path d="M363.61 468.931 363.61 39.4956" stroke="#262626" stroke-width="0.835864" stroke-linejoin="round" stroke-miterlimit="10" stroke-opacity="0.149" fill="none" transform="matrix(1.00018 0 0 1 695.268 -28.5527)"/><path d="M435.183 468.931 435.183 39.4956" stroke="#262626" stroke-width="0.835864" stroke-linejoin="round" stroke-miterlimit="10" stroke-opacity="0.149" fill="none" transform="matrix(1.00018 0 0 1 695.268 -28.5527)"/><path d="M506.755 468.931 506.755 39.4956" stroke="#262626" stroke-width="0.835864" stroke-linejoin="round" stroke-miterlimit="10" stroke-opacity="0.149" fill="none" transform="matrix(1.00018 0 0 1 695.268 -28.5527)"/><path d="M578.328 468.931 578.328 39.4956" stroke="#262626" stroke-width="0.835864" stroke-linejoin="round" stroke-miterlimit="10" stroke-opacity="0.149" fill="none" transform="matrix(1.00018 0 0 1 695.268 -28.5527)"/><path d="M578.328 468.931 148.892 468.931" stroke="#262626" stroke-width="0.835864" stroke-linejoin="round" stroke-miterlimit="10" stroke-opacity="0.149" fill="none" transform="matrix(1.00018 0 0 1 695.268 -28.5527)"/><path d="M578.328 397.359 148.892 397.359" stroke="#262626" stroke-width="0.835864" stroke-linejoin="round" stroke-miterlimit="10" stroke-opacity="0.149" fill="none" transform="matrix(1.00018 0 0 1 695.268 -28.5527)"/><path d="M578.328 325.786 148.892 325.786" stroke="#262626" stroke-width="0.835864" stroke-linejoin="round" stroke-miterlimit="10" stroke-opacity="0.149" fill="none" transform="matrix(1.00018 0 0 1 695.268 -28.5527)"/><path d="M578.328 254.214 148.892 254.214" stroke="#262626" stroke-width="0.835864" stroke-linejoin="round" stroke-miterlimit="10" stroke-opacity="0.149" fill="none" transform="matrix(1.00018 0 0 1 695.268 -28.5527)"/><path d="M578.328 182.641 148.892 182.641" stroke="#262626" stroke-width="0.835864" stroke-linejoin="round" stroke-miterlimit="10" stroke-opacity="0.149" fill="none" transform="matrix(1.00018 0 0 1 695.268 -28.5527)"/><path d="M578.328 111.068 148.892 111.068" stroke="#262626" stroke-width="0.835864" stroke-linejoin="round" stroke-miterlimit="10" stroke-opacity="0.149" fill="none" transform="matrix(1.00018 0 0 1 695.268 -28.5527)"/><path d="M578.328 39.4956 148.892 39.4956" stroke="#262626" stroke-width="0.835864" stroke-linejoin="round" stroke-miterlimit="10" stroke-opacity="0.149" fill="none" transform="matrix(1.00018 0 0 1 695.268 -28.5527)"/><path d="M148.892 468.931 578.328 468.931" stroke="#262626" stroke-width="0.835864" stroke-linecap="square" stroke-linejoin="round" stroke-miterlimit="10" fill="none" transform="matrix(1.00018 0 0 1 695.268 -28.5527)"/><path d="M148.892 468.931 148.892 464.637" stroke="#262626" stroke-width="0.835864" stroke-linecap="square" stroke-linejoin="round" stroke-miterlimit="10" fill="none" transform="matrix(1.00018 0 0 1 695.268 -28.5527)"/><path d="M220.465 468.931 220.465 464.637" stroke="#262626" stroke-width="0.835864" stroke-linecap="square" stroke-linejoin="round" stroke-miterlimit="10" fill="none" transform="matrix(1.00018 0 0 1 695.268 -28.5527)"/><path d="M292.037 468.931 292.037 464.637" stroke="#262626" stroke-width="0.835864" stroke-linecap="square" stroke-linejoin="round" stroke-miterlimit="10" fill="none" transform="matrix(1.00018 0 0 1 695.268 -28.5527)"/><path d="M363.61 468.931 363.61 464.637" stroke="#262626" stroke-width="0.835864" stroke-linecap="square" stroke-linejoin="round" stroke-miterlimit="10" fill="none" transform="matrix(1.00018 0 0 1 695.268 -28.5527)"/><path d="M435.183 468.931 435.183 464.637" stroke="#262626" stroke-width="0.835864" stroke-linecap="square" stroke-linejoin="round" stroke-miterlimit="10" fill="none" transform="matrix(1.00018 0 0 1 695.268 -28.5527)"/><path d="M506.755 468.931 506.755 464.637" stroke="#262626" stroke-width="0.835864" stroke-linecap="square" stroke-linejoin="round" stroke-miterlimit="10" fill="none" transform="matrix(1.00018 0 0 1 695.268 -28.5527)"/><path d="M578.328 468.931 578.328 464.637" stroke="#262626" stroke-width="0.835864" stroke-linecap="square" stroke-linejoin="round" stroke-miterlimit="10" fill="none" transform="matrix(1.00018 0 0 1 695.268 -28.5527)"/><path d="M148.892 468.931 148.892 39.4956" stroke="#262626" stroke-width="0.835864" stroke-linecap="square" stroke-linejoin="round" stroke-miterlimit="10" fill="none" transform="matrix(1.00018 0 0 1 695.268 -28.5527)"/><path d="M148.892 468.931 153.186 468.931" stroke="#262626" stroke-width="0.835864" stroke-linecap="square" stroke-linejoin="round" stroke-miterlimit="10" fill="none" transform="matrix(1.00018 0 0 1 695.268 -28.5527)"/><path d="M148.892 397.359 153.186 397.359" stroke="#262626" stroke-width="0.835864" stroke-linecap="square" stroke-linejoin="round" stroke-miterlimit="10" fill="none" transform="matrix(1.00018 0 0 1 695.268 -28.5527)"/><path d="M148.892 325.786 153.186 325.786" stroke="#262626" stroke-width="0.835864" stroke-linecap="square" stroke-linejoin="round" stroke-miterlimit="10" fill="none" transform="matrix(1.00018 0 0 1 695.268 -28.5527)"/><path d="M148.892 254.214 153.186 254.214" stroke="#262626" stroke-width="0.835864" stroke-linecap="square" stroke-linejoin="round" stroke-miterlimit="10" fill="none" transform="matrix(1.00018 0 0 1 695.268 -28.5527)"/><path d="M148.892 182.641 153.186 182.641" stroke="#262626" stroke-width="0.835864" stroke-linecap="square" stroke-linejoin="round" stroke-miterlimit="10" fill="none" transform="matrix(1.00018 0 0 1 695.268 -28.5527)"/><path d="M148.892 111.068 153.186 111.068" stroke="#262626" stroke-width="0.835864" stroke-linecap="square" stroke-linejoin="round" stroke-miterlimit="10" fill="none" transform="matrix(1.00018 0 0 1 695.268 -28.5527)"/><path d="M148.892 39.4956 153.186 39.4956" stroke="#262626" stroke-width="0.835864" stroke-linecap="square" stroke-linejoin="round" stroke-miterlimit="10" fill="none" transform="matrix(1.00018 0 0 1 695.268 -28.5527)"/><path d="M220.465 182.641 220.465 111.068 148.892 111.068 148.892 182.641 148.892 254.214 220.465 254.214 292.037 254.214 292.037 182.641ZM220.465 182.641 220.465 111.068 148.892 111.068 148.892 182.641 148.892 254.214 220.465 254.214 292.037 254.214 292.037 182.641Z" fill="#3B4CC1" fill-opacity="0.149" transform="matrix(1.00018 0 0 1 695.268 -28.5527)"/><path d="M220.465 325.786 220.465 254.214 148.892 254.214 148.892 325.786Z" fill="#B50426" fill-opacity="0.149" transform="matrix(1.00018 0 0 1 695.268 -28.5527)"/><path d="M220.465 325.786 220.465 254.214 148.892 254.214 148.892 325.786Z" fill="#3B4CC1" fill-opacity="0.149" transform="matrix(1.00018 0 0 1 695.268 -28.5527)"/><path d="M292.037 325.786 292.037 254.214 220.465 254.214 220.465 325.786Z" fill="#B50426" fill-opacity="0.149" transform="matrix(1.00018 0 0 1 695.268 -28.5527)"/><path d="M292.037 325.786 292.037 254.214 220.465 254.214 220.465 325.786Z" fill="#3B4CC1" fill-opacity="0.149" transform="matrix(1.00018 0 0 1 695.268 -28.5527)"/><path d="M363.61 325.786 363.61 254.214 292.037 254.214 292.037 325.786Z" fill="#B50426" fill-opacity="0.149" transform="matrix(1.00018 0 0 1 695.268 -28.5527)"/><path d="M363.61 325.786 363.61 254.214 292.037 254.214 292.037 325.786Z" fill="#3B4CC1" fill-opacity="0.149" transform="matrix(1.00018 0 0 1 695.268 -28.5527)"/><path d="M220.465 397.359 220.465 325.786 148.892 325.786 148.892 397.359Z" fill="#B50426" fill-opacity="0.149" transform="matrix(1.00018 0 0 1 695.268 -28.5527)"/><path d="M220.465 397.359 220.465 325.786 148.892 325.786 148.892 397.359Z" fill="#3B4CC1" fill-opacity="0.149" transform="matrix(1.00018 0 0 1 695.268 -28.5527)"/><path d="M292.037 397.359 292.037 325.786 220.465 325.786 220.465 397.359Z" fill="#B50426" fill-opacity="0.149" transform="matrix(1.00018 0 0 1 695.268 -28.5527)"/><path d="M292.037 397.359 292.037 325.786 220.465 325.786 220.465 397.359Z" fill="#3B4CC1" fill-opacity="0.149" transform="matrix(1.00018 0 0 1 695.268 -28.5527)"/><path d="M363.61 397.359 363.61 325.786 292.037 325.786 292.037 397.359Z" fill="#B50426" fill-opacity="0.149" transform="matrix(1.00018 0 0 1 695.268 -28.5527)"/><path d="M363.61 397.359 363.61 325.786 292.037 325.786 292.037 397.359Z" fill="#3B4CC1" fill-opacity="0.149" transform="matrix(1.00018 0 0 1 695.268 -28.5527)"/><path d="M435.183 397.359 435.183 325.786 363.61 325.786 363.61 397.359ZM435.183 397.359 435.183 325.786 363.61 325.786 363.61 397.359ZM220.465 468.931 220.465 397.359 148.892 397.359 148.892 468.931Z" fill="#B50426" fill-opacity="0.149" transform="matrix(1.00018 0 0 1 695.268 -28.5527)"/><path d="M220.465 468.931 220.465 397.359 148.892 397.359 148.892 468.931Z" fill="#3B4CC1" fill-opacity="0.149" transform="matrix(1.00018 0 0 1 695.268 -28.5527)"/><path d="M292.037 468.931 292.037 397.359 220.465 397.359 220.465 468.931Z" fill="#B50426" fill-opacity="0.149" transform="matrix(1.00018 0 0 1 695.268 -28.5527)"/><path d="M292.037 468.931 292.037 397.359 220.465 397.359 220.465 468.931Z" fill="#3B4CC1" fill-opacity="0.149" transform="matrix(1.00018 0 0 1 695.268 -28.5527)"/><path d="M363.61 468.931 363.61 397.359 292.037 397.359 292.037 468.931Z" fill="#B50426" fill-opacity="0.149" transform="matrix(1.00018 0 0 1 695.268 -28.5527)"/><path d="M363.61 468.931 363.61 397.359 292.037 397.359 292.037 468.931Z" fill="#3B4CC1" fill-opacity="0.149" transform="matrix(1.00018 0 0 1 695.268 -28.5527)"/><path d="M435.183 397.359 363.61 397.359 363.61 468.931 435.183 468.931 506.755 468.931 506.755 397.359ZM435.183 397.359 363.61 397.359 363.61 468.931 435.183 468.931 506.755 468.931 506.755 397.359Z" fill="#B50426" fill-opacity="0.149" transform="matrix(1.00018 0 0 1 695.268 -28.5527)"/><text font-family="Arial,Arial_MSFontService,Arial" font-weight="400" font-size="27" transform="matrix(0.62703 0 0 0.626914 875.278 476)">1</text><text font-family="Arial,Arial_MSFontService,Arial" font-weight="400" font-size="27" transform="matrix(0.62703 0 0 0.626914 946.864 476)">2</text><text font-family="Arial,Arial_MSFontService,Arial" font-weight="400" font-size="27" transform="matrix(0.62703 0 0 0.626914 1018.45 476)">3</text><text font-family="Arial,Arial_MSFontService,Arial" font-weight="400" font-size="27" transform="matrix(0.62703 0 0 0.626914 1090.04 476)">4</text><text font-family="Arial,Arial_MSFontService,Arial" font-weight="400" font-size="27" transform="matrix(0.62703 0 0 0.626914 1161.62 476)">5</text><text font-family="Arial,Arial_MSFontService,Arial" font-weight="400" font-size="27" transform="matrix(0.62703 0 0 0.626914 1233.21 476)">6</text><text font-family="Arial,Arial_MSFontService,Arial" font-weight="400" font-size="27" transform="matrix(0.62703 0 0 0.626914 810.85 411)">1</text><text font-family="Arial,Arial_MSFontService,Arial" font-weight="400" font-size="27" transform="matrix(0.62703 0 0 0.626914 810.85 340)">2</text><text font-family="Arial,Arial_MSFontService,Arial" font-weight="400" font-size="27" transform="matrix(0.62703 0 0 0.626914 810.85 268)">3</text><text font-family="Arial,Arial_MSFontService,Arial" font-weight="400" font-size="27" transform="matrix(0.62703 0 0 0.626914 810.85 196)">4</text><text font-family="Arial,Arial_MSFontService,Arial" font-weight="400" font-size="27" transform="matrix(0.62703 0 0 0.626914 810.85 125)">5</text><text font-family="Arial,Arial_MSFontService,Arial" font-weight="400" font-size="27" transform="matrix(0.62703 0 0 0.626914 810.85 53)">6</text><text font-family="Arial,Arial_MSFontService,Arial" font-weight="400" font-size="27" transform="matrix(0.62703 0 0 0.626914 779.185 -11)">Region</text><text font-family="Arial,Arial_MSFontService,Arial" font-weight="400" font-size="27" transform="matrix(0.62703 0 0 0.626914 838.126 -11)">(</text><text font-family="Arial,Arial_MSFontService,Arial" font-weight="400" font-size="27" transform="matrix(0.62703 0 0 0.626914 843.769 -11)">j</text><text font-family="Arial,Arial_MSFontService,Arial" font-weight="400" font-size="27" transform="matrix(0.62703 0 0 0.626914 847.532 -11)">)</text></g></g></g><g clip-path="url(#clip9)"><g clip-path="url(#clip10)"><g clip-path="url(#clip11)"><g clip-path="url(#clip12)"><path d="M0 0 541.947 0 541.947 406.461 0 406.461Z" fill="#FFFFFF" transform="matrix(1.00011 0 0 1 719.789 -54.0639)"/></g><path d="M0 0 541.947 0 541.947 406.461 0 406.461Z" fill="#FFFFFF" transform="matrix(1.00011 0 0 1 719.789 -54.0639)"/><path d="M114.922 361.943 446.381 361.943 446.381 30.4845 114.922 30.4845Z" fill="#FFFFFF" transform="matrix(1.00011 0 0 1 719.789 -54.0639)"/><path d="M114.922 361.943 114.922 30.4845" stroke="#262626" stroke-width="0.645159" stroke-linejoin="round" stroke-miterlimit="10" stroke-opacity="0.149" fill="none" transform="matrix(1.00011 0 0 1 719.789 -54.0639)"/><path d="M170.165 361.943 170.165 30.4845" stroke="#262626" stroke-width="0.645159" stroke-linejoin="round" stroke-miterlimit="10" stroke-opacity="0.149" fill="none" transform="matrix(1.00011 0 0 1 719.789 -54.0639)"/><path d="M225.408 361.943 225.408 30.4845" stroke="#262626" stroke-width="0.645159" stroke-linejoin="round" stroke-miterlimit="10" stroke-opacity="0.149" fill="none" transform="matrix(1.00011 0 0 1 719.789 -54.0639)"/><path d="M280.651 361.943 280.651 30.4845" stroke="#262626" stroke-width="0.645159" stroke-linejoin="round" stroke-miterlimit="10" stroke-opacity="0.149" fill="none" transform="matrix(1.00011 0 0 1 719.789 -54.0639)"/><path d="M335.895 361.943 335.895 30.4845" stroke="#262626" stroke-width="0.645159" stroke-linejoin="round" stroke-miterlimit="10" stroke-opacity="0.149" fill="none" transform="matrix(1.00011 0 0 1 719.789 -54.0639)"/><path d="M391.138 361.943 391.138 30.4845" stroke="#262626" stroke-width="0.645159" stroke-linejoin="round" stroke-miterlimit="10" stroke-opacity="0.149" fill="none" transform="matrix(1.00011 0 0 1 719.789 -54.0639)"/><path d="M446.381 361.943 446.381 30.4845" stroke="#262626" stroke-width="0.645159" stroke-linejoin="round" stroke-miterlimit="10" stroke-opacity="0.149" fill="none" transform="matrix(1.00011 0 0 1 719.789 -54.0639)"/><path d="M446.381 361.943 114.922 361.943" stroke="#262626" stroke-width="0.645159" stroke-linejoin="round" stroke-miterlimit="10" stroke-opacity="0.149" fill="none" transform="matrix(1.00011 0 0 1 719.789 -54.0639)"/><path d="M446.381 306.7 114.922 306.7" stroke="#262626" stroke-width="0.645159" stroke-linejoin="round" stroke-miterlimit="10" stroke-opacity="0.149" fill="none" transform="matrix(1.00011 0 0 1 719.789 -54.0639)"/><path d="M446.381 251.457 114.922 251.457" stroke="#262626" stroke-width="0.645159" stroke-linejoin="round" stroke-miterlimit="10" stroke-opacity="0.149" fill="none" transform="matrix(1.00011 0 0 1 719.789 -54.0639)"/><path d="M446.381 196.214 114.922 196.214" stroke="#262626" stroke-width="0.645159" stroke-linejoin="round" stroke-miterlimit="10" stroke-opacity="0.149" fill="none" transform="matrix(1.00011 0 0 1 719.789 -54.0639)"/><path d="M446.381 140.971 114.922 140.971" stroke="#262626" stroke-width="0.645159" stroke-linejoin="round" stroke-miterlimit="10" stroke-opacity="0.149" fill="none" transform="matrix(1.00011 0 0 1 719.789 -54.0639)"/><path d="M446.381 85.7279 114.922 85.7279" stroke="#262626" stroke-width="0.645159" stroke-linejoin="round" stroke-miterlimit="10" stroke-opacity="0.149" fill="none" transform="matrix(1.00011 0 0 1 719.789 -54.0639)"/><path d="M446.381 30.4845 114.922 30.4845" stroke="#262626" stroke-width="0.645159" stroke-linejoin="round" stroke-miterlimit="10" stroke-opacity="0.149" fill="none" transform="matrix(1.00011 0 0 1 719.789 -54.0639)"/><path d="M114.922 361.943 446.381 361.943" stroke="#262626" stroke-width="0.645159" stroke-linecap="square" stroke-linejoin="round" stroke-miterlimit="10" fill="none" transform="matrix(1.00011 0 0 1 719.789 -54.0639)"/><path d="M114.922 361.943 114.922 358.629" stroke="#262626" stroke-width="0.645159" stroke-linecap="square" stroke-linejoin="round" stroke-miterlimit="10" fill="none" transform="matrix(1.00011 0 0 1 719.789 -54.0639)"/><path d="M170.165 361.943 170.165 358.629" stroke="#262626" stroke-width="0.645159" stroke-linecap="square" stroke-linejoin="round" stroke-miterlimit="10" fill="none" transform="matrix(1.00011 0 0 1 719.789 -54.0639)"/><path d="M225.408 361.943 225.408 358.629" stroke="#262626" stroke-width="0.645159" stroke-linecap="square" stroke-linejoin="round" stroke-miterlimit="10" fill="none" transform="matrix(1.00011 0 0 1 719.789 -54.0639)"/><path d="M280.651 361.943 280.651 358.629" stroke="#262626" stroke-width="0.645159" stroke-linecap="square" stroke-linejoin="round" stroke-miterlimit="10" fill="none" transform="matrix(1.00011 0 0 1 719.789 -54.0639)"/><path d="M335.895 361.943 335.895 358.629" stroke="#262626" stroke-width="0.645159" stroke-linecap="square" stroke-linejoin="round" stroke-miterlimit="10" fill="none" transform="matrix(1.00011 0 0 1 719.789 -54.0639)"/><path d="M391.138 361.943 391.138 358.629" stroke="#262626" stroke-width="0.645159" stroke-linecap="square" stroke-linejoin="round" stroke-miterlimit="10" fill="none" transform="matrix(1.00011 0 0 1 719.789 -54.0639)"/><path d="M446.381 361.943 446.381 358.629" stroke="#262626" stroke-width="0.645159" stroke-linecap="square" stroke-linejoin="round" stroke-miterlimit="10" fill="none" transform="matrix(1.00011 0 0 1 719.789 -54.0639)"/><path d="M114.922 361.943 114.922 30.4845" stroke="#262626" stroke-width="0.645159" stroke-linecap="square" stroke-linejoin="round" stroke-miterlimit="10" fill="none" transform="matrix(1.00011 0 0 1 719.789 -54.0639)"/><path d="M114.922 361.943 118.236 361.943" stroke="#262626" stroke-width="0.645159" stroke-linecap="square" stroke-linejoin="round" stroke-miterlimit="10" fill="none" transform="matrix(1.00011 0 0 1 719.789 -54.0639)"/><path d="M114.922 306.7 118.236 306.7" stroke="#262626" stroke-width="0.645159" stroke-linecap="square" stroke-linejoin="round" stroke-miterlimit="10" fill="none" transform="matrix(1.00011 0 0 1 719.789 -54.0639)"/><path d="M114.922 251.457 118.236 251.457" stroke="#262626" stroke-width="0.645159" stroke-linecap="square" stroke-linejoin="round" stroke-miterlimit="10" fill="none" transform="matrix(1.00011 0 0 1 719.789 -54.0639)"/><path d="M114.922 196.214 118.236 196.214" stroke="#262626" stroke-width="0.645159" stroke-linecap="square" stroke-linejoin="round" stroke-miterlimit="10" fill="none" transform="matrix(1.00011 0 0 1 719.789 -54.0639)"/><path d="M114.922 140.971 118.236 140.971" stroke="#262626" stroke-width="0.645159" stroke-linecap="square" stroke-linejoin="round" stroke-miterlimit="10" fill="none" transform="matrix(1.00011 0 0 1 719.789 -54.0639)"/><path d="M114.922 85.7279 118.236 85.7279" stroke="#262626" stroke-width="0.645159" stroke-linecap="square" stroke-linejoin="round" stroke-miterlimit="10" fill="none" transform="matrix(1.00011 0 0 1 719.789 -54.0639)"/><path d="M114.922 30.4845 118.236 30.4845" stroke="#262626" stroke-width="0.645159" stroke-linecap="square" stroke-linejoin="round" stroke-miterlimit="10" fill="none" transform="matrix(1.00011 0 0 1 719.789 -54.0639)"/><path d="M170.165 140.971 170.165 85.7279 114.922 85.7279 114.922 140.971 114.922 196.214 170.165 196.214 225.408 196.214 225.408 140.971ZM170.165 140.971 170.165 85.7279 114.922 85.7279 114.922 140.971 114.922 196.214 170.165 196.214 225.408 196.214 225.408 140.971Z" fill="#3B4CC1" fill-opacity="0.149" transform="matrix(1.00011 0 0 1 719.789 -54.0639)"/><path d="M170.165 251.457 170.165 196.214 114.922 196.214 114.922 251.457Z" fill="#B50426" fill-opacity="0.149" transform="matrix(1.00011 0 0 1 719.789 -54.0639)"/><path d="M170.165 251.457 170.165 196.214 114.922 196.214 114.922 251.457Z" fill="#3B4CC1" fill-opacity="0.149" transform="matrix(1.00011 0 0 1 719.789 -54.0639)"/><path d="M225.408 251.457 225.408 196.214 170.165 196.214 170.165 251.457Z" fill="#B50426" fill-opacity="0.149" transform="matrix(1.00011 0 0 1 719.789 -54.0639)"/><path d="M225.408 251.457 225.408 196.214 170.165 196.214 170.165 251.457Z" fill="#3B4CC1" fill-opacity="0.149" transform="matrix(1.00011 0 0 1 719.789 -54.0639)"/><path d="M280.651 251.457 280.651 196.214 225.408 196.214 225.408 251.457Z" fill="#B50426" fill-opacity="0.149" transform="matrix(1.00011 0 0 1 719.789 -54.0639)"/><path d="M280.651 251.457 280.651 196.214 225.408 196.214 225.408 251.457Z" fill="#3B4CC1" fill-opacity="0.149" transform="matrix(1.00011 0 0 1 719.789 -54.0639)"/><path d="M170.165 306.7 170.165 251.457 114.922 251.457 114.922 306.7Z" fill="#B50426" fill-opacity="0.149" transform="matrix(1.00011 0 0 1 719.789 -54.0639)"/><path d="M170.165 306.7 170.165 251.457 114.922 251.457 114.922 306.7Z" fill="#3B4CC1" fill-opacity="0.149" transform="matrix(1.00011 0 0 1 719.789 -54.0639)"/><path d="M225.408 306.7 225.408 251.457 170.165 251.457 170.165 306.7Z" fill="#B50426" fill-opacity="0.149" transform="matrix(1.00011 0 0 1 719.789 -54.0639)"/><path d="M225.408 306.7 225.408 251.457 170.165 251.457 170.165 306.7Z" fill="#3B4CC1" fill-opacity="0.149" transform="matrix(1.00011 0 0 1 719.789 -54.0639)"/><path d="M280.651 306.7 280.651 251.457 225.408 251.457 225.408 306.7Z" fill="#B50426" fill-opacity="0.149" transform="matrix(1.00011 0 0 1 719.789 -54.0639)"/><path d="M280.651 306.7 280.651 251.457 225.408 251.457 225.408 306.7Z" fill="#3B4CC1" fill-opacity="0.149" transform="matrix(1.00011 0 0 1 719.789 -54.0639)"/><path d="M335.895 306.7 335.895 251.457 280.651 251.457 280.651 306.7ZM335.895 306.7 335.895 251.457 280.651 251.457 280.651 306.7ZM170.165 361.943 170.165 306.7 114.922 306.7 114.922 361.943Z" fill="#B50426" fill-opacity="0.149" transform="matrix(1.00011 0 0 1 719.789 -54.0639)"/><path d="M170.165 361.943 170.165 306.7 114.922 306.7 114.922 361.943Z" fill="#3B4CC1" fill-opacity="0.149" transform="matrix(1.00011 0 0 1 719.789 -54.0639)"/><path d="M225.408 361.943 225.408 306.7 170.165 306.7 170.165 361.943Z" fill="#B50426" fill-opacity="0.149" transform="matrix(1.00011 0 0 1 719.789 -54.0639)"/><path d="M225.408 361.943 225.408 306.7 170.165 306.7 170.165 361.943Z" fill="#3B4CC1" fill-opacity="0.149" transform="matrix(1.00011 0 0 1 719.789 -54.0639)"/><path d="M280.651 361.943 280.651 306.7 225.408 306.7 225.408 361.943Z" fill="#B50426" fill-opacity="0.149" transform="matrix(1.00011 0 0 1 719.789 -54.0639)"/><path d="M280.651 361.943 280.651 306.7 225.408 306.7 225.408 361.943Z" fill="#3B4CC1" fill-opacity="0.149" transform="matrix(1.00011 0 0 1 719.789 -54.0639)"/><path d="M335.895 306.7 280.651 306.7 280.651 361.943 335.895 361.943 391.138 361.943 391.138 306.7ZM335.895 306.7 280.651 306.7 280.651 361.943 335.895 361.943 391.138 361.943 391.138 306.7Z" fill="#B50426" fill-opacity="0.149" transform="matrix(1.00011 0 0 1 719.789 -54.0639)"/><text font-family="Arial,Arial_MSFontService,Arial" font-weight="400" font-size="27" transform="matrix(0.483933 0 0 0.483882 858.718 335)">1</text><text font-family="Arial,Arial_MSFontService,Arial" font-weight="400" font-size="27" transform="matrix(0.483933 0 0 0.483882 913.967 335)">2</text><text font-family="Arial,Arial_MSFontService,Arial" font-weight="400" font-size="27" transform="matrix(0.483933 0 0 0.483882 969.216 335)">3</text><text font-family="Arial,Arial_MSFontService,Arial" font-weight="400" font-size="27" transform="matrix(0.483933 0 0 0.483882 1024.46 335)">4</text><text font-family="Arial,Arial_MSFontService,Arial" font-weight="400" font-size="27" transform="matrix(0.483933 0 0 0.483882 1079.71 335)">5</text><text font-family="Arial,Arial_MSFontService,Arial" font-weight="400" font-size="27" transform="matrix(0.483933 0 0 0.483882 1134.96 335)">6</text><text font-family="Arial,Arial_MSFontService,Arial" font-weight="400" font-size="27" transform="matrix(0.483933 0 0 0.483882 808.994 285)">1</text><text font-family="Arial,Arial_MSFontService,Arial" font-weight="400" font-size="27" transform="matrix(0.483933 0 0 0.483882 808.994 230)">2</text><text font-family="Arial,Arial_MSFontService,Arial" font-weight="400" font-size="27" transform="matrix(0.483933 0 0 0.483882 808.994 175)">3</text><text font-family="Arial,Arial_MSFontService,Arial" font-weight="400" font-size="27" transform="matrix(0.483933 0 0 0.483882 808.994 120)">4</text><text font-family="Arial,Arial_MSFontService,Arial" font-weight="400" font-size="27" transform="matrix(0.483933 0 0 0.483882 808.994 64)">5</text><text font-family="Arial,Arial_MSFontService,Arial" font-weight="400" font-size="27" transform="matrix(0.483933 0 0 0.483882 808.994 9)">6</text><text font-family="Arial,Arial_MSFontService,Arial" font-weight="400" font-size="27" transform="matrix(0.483933 0 0 0.483882 784.555 -41)">Region</text><text font-family="Arial,Arial_MSFontService,Arial" font-weight="400" font-size="27" transform="matrix(0.483933 0 0 0.483882 830.045 -41)">(</text><text font-family="Arial,Arial_MSFontService,Arial" font-weight="400" font-size="27" transform="matrix(0.483933 0 0 0.483882 834.4 -41)">j</text><text font-family="Arial,Arial_MSFontService,Arial" font-weight="400" font-size="27" transform="matrix(0.483933 0 0 0.483882 837.304 -41)">)</text></g></g></g><g clip-path="url(#clip13)"><g clip-path="url(#clip14)"><g clip-path="url(#clip15)"><g clip-path="url(#clip16)"><path d="M0 0 756.646 0 756.646 567.485 0 567.485Z" fill="#FFFFFF" transform="matrix(1.02724 0 0 1 423.847 -158.208)"/></g><path d="M0 0 756.646 0 756.646 567.485 0 567.485Z" fill="#FFFFFF" transform="matrix(1.02724 0 0 1 423.847 -158.208)"/><path d="M160.45 505.332 623.22 505.332 623.22 42.5614 160.45 42.5614Z" fill="#FFFFFF" transform="matrix(1.02724 0 0 1 423.847 -158.208)"/><path d="M160.45 505.332 160.45 42.5614" stroke="#262626" stroke-width="0.900747" stroke-linejoin="round" stroke-miterlimit="10" stroke-opacity="0.149" fill="none" transform="matrix(1.02724 0 0 1 423.847 -158.208)"/><path d="M237.578 505.332 237.578 42.5614" stroke="#262626" stroke-width="0.900747" stroke-linejoin="round" stroke-miterlimit="10" stroke-opacity="0.149" fill="none" transform="matrix(1.02724 0 0 1 423.847 -158.208)"/><path d="M314.706 505.332 314.706 42.5614" stroke="#262626" stroke-width="0.900747" stroke-linejoin="round" stroke-miterlimit="10" stroke-opacity="0.149" fill="none" transform="matrix(1.02724 0 0 1 423.847 -158.208)"/><path d="M391.835 505.332 391.835 42.5614" stroke="#262626" stroke-width="0.900747" stroke-linejoin="round" stroke-miterlimit="10" stroke-opacity="0.149" fill="none" transform="matrix(1.02724 0 0 1 423.847 -158.208)"/><path d="M468.963 505.332 468.963 42.5614" stroke="#262626" stroke-width="0.900747" stroke-linejoin="round" stroke-miterlimit="10" stroke-opacity="0.149" fill="none" transform="matrix(1.02724 0 0 1 423.847 -158.208)"/><path d="M546.091 505.332 546.091 42.5614" stroke="#262626" stroke-width="0.900747" stroke-linejoin="round" stroke-miterlimit="10" stroke-opacity="0.149" fill="none" transform="matrix(1.02724 0 0 1 423.847 -158.208)"/><path d="M623.22 505.332 623.22 42.5614" stroke="#262626" stroke-width="0.900747" stroke-linejoin="round" stroke-miterlimit="10" stroke-opacity="0.149" fill="none" transform="matrix(1.02724 0 0 1 423.847 -158.208)"/><path d="M623.22 505.332 160.45 505.332" stroke="#262626" stroke-width="0.900747" stroke-linejoin="round" stroke-miterlimit="10" stroke-opacity="0.149" fill="none" transform="matrix(1.02724 0 0 1 423.847 -158.208)"/><path d="M623.22 428.203 160.45 428.203" stroke="#262626" stroke-width="0.900747" stroke-linejoin="round" stroke-miterlimit="10" stroke-opacity="0.149" fill="none" transform="matrix(1.02724 0 0 1 423.847 -158.208)"/><path d="M623.22 351.075 160.45 351.075" stroke="#262626" stroke-width="0.900747" stroke-linejoin="round" stroke-miterlimit="10" stroke-opacity="0.149" fill="none" transform="matrix(1.02724 0 0 1 423.847 -158.208)"/><path d="M623.22 273.946 160.45 273.946" stroke="#262626" stroke-width="0.900747" stroke-linejoin="round" stroke-miterlimit="10" stroke-opacity="0.149" fill="none" transform="matrix(1.02724 0 0 1 423.847 -158.208)"/><path d="M623.22 196.818 160.45 196.818" stroke="#262626" stroke-width="0.900747" stroke-linejoin="round" stroke-miterlimit="10" stroke-opacity="0.149" fill="none" transform="matrix(1.02724 0 0 1 423.847 -158.208)"/><path d="M623.22 119.69 160.45 119.69" stroke="#262626" stroke-width="0.900747" stroke-linejoin="round" stroke-miterlimit="10" stroke-opacity="0.149" fill="none" transform="matrix(1.02724 0 0 1 423.847 -158.208)"/><path d="M623.22 42.5614 160.45 42.5614" stroke="#262626" stroke-width="0.900747" stroke-linejoin="round" stroke-miterlimit="10" stroke-opacity="0.149" fill="none" transform="matrix(1.02724 0 0 1 423.847 -158.208)"/><path d="M160.45 505.332 623.22 505.332" stroke="#262626" stroke-width="0.900747" stroke-linecap="square" stroke-linejoin="round" stroke-miterlimit="10" fill="none" transform="matrix(1.02724 0 0 1 423.847 -158.208)"/><path d="M160.45 505.332 160.45 500.704" stroke="#262626" stroke-width="0.900747" stroke-linecap="square" stroke-linejoin="round" stroke-miterlimit="10" fill="none" transform="matrix(1.02724 0 0 1 423.847 -158.208)"/><path d="M237.578 505.332 237.578 500.704" stroke="#262626" stroke-width="0.900747" stroke-linecap="square" stroke-linejoin="round" stroke-miterlimit="10" fill="none" transform="matrix(1.02724 0 0 1 423.847 -158.208)"/><path d="M314.706 505.332 314.706 500.704" stroke="#262626" stroke-width="0.900747" stroke-linecap="square" stroke-linejoin="round" stroke-miterlimit="10" fill="none" transform="matrix(1.02724 0 0 1 423.847 -158.208)"/><path d="M391.835 505.332 391.835 500.704" stroke="#262626" stroke-width="0.900747" stroke-linecap="square" stroke-linejoin="round" stroke-miterlimit="10" fill="none" transform="matrix(1.02724 0 0 1 423.847 -158.208)"/><path d="M468.963 505.332 468.963 500.704" stroke="#262626" stroke-width="0.900747" stroke-linecap="square" stroke-linejoin="round" stroke-miterlimit="10" fill="none" transform="matrix(1.02724 0 0 1 423.847 -158.208)"/><path d="M546.091 505.332 546.091 500.704" stroke="#262626" stroke-width="0.900747" stroke-linecap="square" stroke-linejoin="round" stroke-miterlimit="10" fill="none" transform="matrix(1.02724 0 0 1 423.847 -158.208)"/><path d="M623.22 505.332 623.22 500.704" stroke="#262626" stroke-width="0.900747" stroke-linecap="square" stroke-linejoin="round" stroke-miterlimit="10" fill="none" transform="matrix(1.02724 0 0 1 423.847 -158.208)"/><path d="M160.45 505.332 160.45 42.5614" stroke="#262626" stroke-width="0.900747" stroke-linecap="square" stroke-linejoin="round" stroke-miterlimit="10" fill="none" transform="matrix(1.02724 0 0 1 423.847 -158.208)"/><path d="M160.45 505.332 165.077 505.332" stroke="#262626" stroke-width="0.900747" stroke-linecap="square" stroke-linejoin="round" stroke-miterlimit="10" fill="none" transform="matrix(1.02724 0 0 1 423.847 -158.208)"/><path d="M160.45 428.203 165.077 428.203" stroke="#262626" stroke-width="0.900747" stroke-linecap="square" stroke-linejoin="round" stroke-miterlimit="10" fill="none" transform="matrix(1.02724 0 0 1 423.847 -158.208)"/><path d="M160.45 351.075 165.077 351.075" stroke="#262626" stroke-width="0.900747" stroke-linecap="square" stroke-linejoin="round" stroke-miterlimit="10" fill="none" transform="matrix(1.02724 0 0 1 423.847 -158.208)"/><path d="M160.45 273.946 165.077 273.946" stroke="#262626" stroke-width="0.900747" stroke-linecap="square" stroke-linejoin="round" stroke-miterlimit="10" fill="none" transform="matrix(1.02724 0 0 1 423.847 -158.208)"/><path d="M160.45 196.818 165.077 196.818" stroke="#262626" stroke-width="0.900747" stroke-linecap="square" stroke-linejoin="round" stroke-miterlimit="10" fill="none" transform="matrix(1.02724 0 0 1 423.847 -158.208)"/><path d="M160.45 119.69 165.077 119.69" stroke="#262626" stroke-width="0.900747" stroke-linecap="square" stroke-linejoin="round" stroke-miterlimit="10" fill="none" transform="matrix(1.02724 0 0 1 423.847 -158.208)"/><path d="M160.45 42.5614 165.077 42.5614" stroke="#262626" stroke-width="0.900747" stroke-linecap="square" stroke-linejoin="round" stroke-miterlimit="10" fill="none" transform="matrix(1.02724 0 0 1 423.847 -158.208)"/><path d="M237.578 196.818 237.578 119.69 160.45 119.69 160.45 196.818 160.45 273.946 237.578 273.946 314.706 273.946 314.706 196.818ZM237.578 196.818 237.578 119.69 160.45 119.69 160.45 196.818 160.45 273.946 237.578 273.946 314.706 273.946 314.706 196.818Z" fill="#3B4CC1" fill-opacity="0.149" transform="matrix(1.02724 0 0 1 423.847 -158.208)"/><path d="M237.578 351.075 237.578 273.946 160.45 273.946 160.45 351.075Z" fill="#B50426" fill-opacity="0.149" transform="matrix(1.02724 0 0 1 423.847 -158.208)"/><path d="M237.578 351.075 237.578 273.946 160.45 273.946 160.45 351.075Z" fill="#3B4CC1" fill-opacity="0.149" transform="matrix(1.02724 0 0 1 423.847 -158.208)"/><path d="M314.706 351.075 314.706 273.946 237.578 273.946 237.578 351.075Z" fill="#B50426" fill-opacity="0.149" transform="matrix(1.02724 0 0 1 423.847 -158.208)"/><path d="M314.706 351.075 314.706 273.946 237.578 273.946 237.578 351.075Z" fill="#3B4CC1" fill-opacity="0.149" transform="matrix(1.02724 0 0 1 423.847 -158.208)"/><path d="M391.835 351.075 391.835 273.946 314.706 273.946 314.706 351.075Z" fill="#B50426" fill-opacity="0.149" transform="matrix(1.02724 0 0 1 423.847 -158.208)"/><path d="M391.835 351.075 391.835 273.946 314.706 273.946 314.706 351.075Z" fill="#3B4CC1" fill-opacity="0.149" transform="matrix(1.02724 0 0 1 423.847 -158.208)"/><path d="M237.578 428.203 237.578 351.075 160.45 351.075 160.45 428.203Z" fill="#B50426" fill-opacity="0.149" transform="matrix(1.02724 0 0 1 423.847 -158.208)"/><path d="M237.578 428.203 237.578 351.075 160.45 351.075 160.45 428.203Z" fill="#3B4CC1" fill-opacity="0.149" transform="matrix(1.02724 0 0 1 423.847 -158.208)"/><path d="M314.706 428.203 314.706 351.075 237.578 351.075 237.578 428.203Z" fill="#B50426" fill-opacity="0.149" transform="matrix(1.02724 0 0 1 423.847 -158.208)"/><path d="M314.706 428.203 314.706 351.075 237.578 351.075 237.578 428.203Z" fill="#3B4CC1" fill-opacity="0.149" transform="matrix(1.02724 0 0 1 423.847 -158.208)"/><path d="M391.835 428.203 391.835 351.075 314.706 351.075 314.706 428.203Z" fill="#B50426" fill-opacity="0.149" transform="matrix(1.02724 0 0 1 423.847 -158.208)"/><path d="M391.835 428.203 391.835 351.075 314.706 351.075 314.706 428.203Z" fill="#3B4CC1" fill-opacity="0.149" transform="matrix(1.02724 0 0 1 423.847 -158.208)"/><path d="M468.963 428.203 468.963 351.075 391.835 351.075 391.835 428.203ZM468.963 428.203 468.963 351.075 391.835 351.075 391.835 428.203ZM237.578 505.332 237.578 428.203 160.45 428.203 160.45 505.332Z" fill="#B50426" fill-opacity="0.149" transform="matrix(1.02724 0 0 1 423.847 -158.208)"/><path d="M237.578 505.332 237.578 428.203 160.45 428.203 160.45 505.332Z" fill="#3B4CC1" fill-opacity="0.149" transform="matrix(1.02724 0 0 1 423.847 -158.208)"/><path d="M314.706 505.332 314.706 428.203 237.578 428.203 237.578 505.332Z" fill="#B50426" fill-opacity="0.149" transform="matrix(1.02724 0 0 1 423.847 -158.208)"/><path d="M314.706 505.332 314.706 428.203 237.578 428.203 237.578 505.332Z" fill="#3B4CC1" fill-opacity="0.149" transform="matrix(1.02724 0 0 1 423.847 -158.208)"/><path d="M391.835 505.332 391.835 428.203 314.706 428.203 314.706 505.332Z" fill="#B50426" fill-opacity="0.149" transform="matrix(1.02724 0 0 1 423.847 -158.208)"/><path d="M391.835 505.332 391.835 428.203 314.706 428.203 314.706 505.332Z" fill="#3B4CC1" fill-opacity="0.149" transform="matrix(1.02724 0 0 1 423.847 -158.208)"/><path d="M468.963 428.203 391.835 428.203 391.835 505.332 468.963 505.332 546.091 505.332 546.091 428.203ZM468.963 428.203 391.835 428.203 391.835 505.332 468.963 505.332 546.091 505.332 546.091 428.203Z" fill="#B50426" fill-opacity="0.149" transform="matrix(1.02724 0 0 1 423.847 -158.208)"/><text font-family="Arial,Arial_MSFontService,Arial" font-weight="400" font-size="27" transform="matrix(0.693978 0 0 0.675577 623.076 385)">1</text><text font-family="Arial,Arial_MSFontService,Arial" font-weight="400" font-size="27" transform="matrix(0.693978 0 0 0.675577 702.305 385)">2</text><text font-family="Arial,Arial_MSFontService,Arial" font-weight="400" font-size="27" transform="matrix(0.693978 0 0 0.675577 781.535 385)">3</text><text font-family="Arial,Arial_MSFontService,Arial" font-weight="400" font-size="27" transform="matrix(0.693978 0 0 0.675577 860.763 385)">4</text><text font-family="Arial,Arial_MSFontService,Arial" font-weight="400" font-size="27" transform="matrix(0.693978 0 0 0.675577 939.993 385)">5</text><text font-family="Arial,Arial_MSFontService,Arial" font-weight="400" font-size="27" transform="matrix(0.693978 0 0 0.675577 1019.22 385)">6</text><text font-family="Arial,Arial_MSFontService,Arial" font-weight="400" font-size="27" transform="matrix(0.693978 0 0 0.675577 551.77 316)">1</text><text font-family="Arial,Arial_MSFontService,Arial" font-weight="400" font-size="27" transform="matrix(0.693978 0 0 0.675577 551.77 239)">2</text><text font-family="Arial,Arial_MSFontService,Arial" font-weight="400" font-size="27" transform="matrix(0.693978 0 0 0.675577 551.77 161)">3</text><text font-family="Arial,Arial_MSFontService,Arial" font-weight="400" font-size="27" transform="matrix(0.693978 0 0 0.675577 551.77 84)">4</text><text font-family="Arial,Arial_MSFontService,Arial" font-weight="400" font-size="27" transform="matrix(0.693978 0 0 0.675577 551.77 7)">5</text><text font-family="Arial,Arial_MSFontService,Arial" font-weight="400" font-size="27" transform="matrix(0.693978 0 0 0.675577 551.77 -70)">6</text><text font-family="Arial,Arial_MSFontService,Arial" font-weight="400" font-size="27" transform="matrix(0.693978 0 0 0.675577 516.724 -139)">Region</text><text font-family="Arial,Arial_MSFontService,Arial" font-weight="400" font-size="27" transform="matrix(0.693978 0 0 0.675577 581.958 -139)">(</text><text font-family="Arial,Arial_MSFontService,Arial" font-weight="400" font-size="27" transform="matrix(0.693978 0 0 0.675577 588.203 -139)">j</text><text font-family="Arial,Arial_MSFontService,Arial" font-weight="400" font-size="27" transform="matrix(0.693978 0 0 0.675577 592.367 -139)">)</text></g></g></g><text font-family="Arial,Arial_MSFontService,Arial" font-weight="400" font-size="16" transform="translate(832.742 73)">g</text><text font-family="Arial,Arial_MSFontService,Arial" font-weight="400" font-size="16" transform="translate(833.064 120)">1</text><text font-family="Arial,Arial_MSFontService,Arial" font-weight="400" font-size="16" transform="translate(832.742 173)">2</text><text font-family="Arial,Arial_MSFontService,Arial" font-weight="400" font-size="16" transform="translate(832.742 225)">3</text></g></svg>